<?xml version="1.0" standalone="no"?>
<!DOCTYPE svg PUBLIC "-//W3C//DTD SVG 20010904//EN"
 "http://www.w3.org/TR/2001/REC-SVG-20010904/DTD/svg10.dtd">
<svg version="1.0" xmlns="http://www.w3.org/2000/svg"
 width="512.000000pt" height="512.000000pt" viewBox="0 0 512.000000 512.000000"
 preserveAspectRatio="xMidYMid meet">
<metadata>
Created by potrace 1.14, written by Peter Selinger 2001-2017
</metadata>
<g transform="translate(0.000000,512.000000) scale(0.100000,-0.100000)"
fill="#000000" stroke="none">
<path d="M2540 5107 c-20 -16 -90 -114 -90 -126 0 -5 -6 -16 -13 -23 -8 -7
-31 -47 -53 -88 -21 -41 -42 -77 -45 -80 -3 -3 -14 -23 -25 -45 -10 -22 -21
-42 -24 -45 -3 -3 -64 -122 -135 -265 -71 -143 -134 -263 -139 -267 -6 -4 -8
-8 -4 -8 4 0 -12 -37 -35 -82 -22 -46 -41 -85 -42 -88 -5 -21 -41 -90 -47 -90
-4 0 -5 -7 -2 -15 4 -8 2 -15 -2 -15 -5 0 -15 -15 -23 -32 -7 -18 -28 -63 -47
-101 -19 -37 -34 -74 -34 -82 0 -8 -4 -15 -10 -15 -5 0 -10 -4 -10 -9 0 -8
-36 -89 -112 -251 -12 -25 -24 -47 -27 -50 -3 -3 -7 -12 -9 -20 -2 -8 -15 -39
-30 -70 -15 -30 -25 -58 -24 -62 1 -5 -2 -8 -8 -8 -5 0 -10 -5 -10 -11 0 -5
-12 -36 -27 -67 -15 -31 -28 -59 -28 -62 -2 -13 -36 -70 -43 -71 -47 -4 -94
-13 -182 -34 -58 -14 -115 -27 -127 -30 -12 -3 -34 -10 -48 -15 -14 -5 -25 -7
-25 -4 0 4 -6 1 -13 -5 -8 -6 -17 -8 -20 -4 -4 3 -7 1 -7 -6 0 -7 -5 -9 -10
-6 -6 4 -16 3 -23 -2 -7 -5 -40 -20 -75 -32 -35 -12 -80 -30 -100 -39 -20 -8
-40 -15 -44 -14 -5 1 -8 -3 -8 -9 0 -5 -4 -7 -10 -4 -5 3 -10 2 -10 -4 0 -5
-8 -8 -18 -6 -9 1 -16 8 -14 15 1 6 3 168 4 358 0 191 4 352 8 357 4 6 13 35
20 65 7 30 17 63 22 73 6 12 5 17 -4 17 -9 0 -10 3 -2 8 6 4 26 65 43 136 40
159 41 161 91 216 22 24 40 50 40 57 0 7 4 13 8 13 7 0 42 85 49 120 3 15 5
116 2 155 -1 28 -39 125 -62 160 -31 46 -78 94 -123 125 -114 80 -288 93 -414
31 -57 -28 -124 -81 -168 -136 -18 -21 -66 -126 -67 -145 0 -8 -3 -19 -6 -25
-6 -10 -4 -144 3 -177 2 -10 7 -21 11 -24 4 -4 7 -15 7 -24 0 -21 69 -129 103
-161 14 -13 28 -35 31 -49 3 -14 31 -119 62 -235 l57 -210 2 -1172 c1 -645 -1
-1173 -4 -1174 -66 -9 -151 -43 -151 -61 0 -6 -3 -9 -6 -6 -11 11 -67 -57 -92
-112 -20 -46 -25 -71 -25 -150 -1 -89 5 -139 17 -158 14 -23 13 -66 -2 -100
-13 -31 -16 -80 -17 -284 l-2 -248 2204 0 2203 0 1 33 c2 90 -3 297 -8 337 -3
25 -7 56 -8 70 -2 14 -4 25 -5 25 -1 0 -4 13 -6 29 -3 16 -12 42 -20 58 -8 15
-12 28 -9 28 3 0 -6 23 -20 50 -14 28 -22 50 -18 50 5 0 3 4 -2 8 -6 4 -26 32
-45 62 -42 67 -147 178 -204 217 -22 15 -43 31 -46 34 -3 3 -20 12 -37 20 -18
8 -33 18 -33 22 0 5 -5 5 -10 2 -5 -3 -10 -1 -10 5 0 6 -4 8 -10 5 -6 -3 -10
-1 -10 6 0 7 -3 10 -6 6 -3 -3 -20 2 -37 12 -18 10 -40 17 -50 15 -9 -1 -17 2
-17 8 0 6 -7 8 -15 4 -8 -3 -15 -1 -15 3 0 5 -8 8 -17 6 -10 -1 -22 0 -28 3
-13 8 -38 10 -155 15 l-95 4 3 29 c1 16 3 46 4 66 1 21 6 38 11 38 4 0 5 5 1
12 -4 6 -7 28 -7 47 0 20 -3 41 -6 46 -12 18 -13 75 -1 75 40 0 74 99 74 221
1 94 2 97 27 108 32 14 72 86 90 161 15 65 24 79 47 75 9 -1 22 0 27 4 6 3 15
6 20 7 6 1 26 5 45 8 19 4 45 9 57 11 11 1 30 6 42 10 11 3 31 8 43 11 45 8
64 13 148 38 233 71 391 161 437 251 47 90 -28 228 -179 327 -45 31 -201 111
-218 113 -3 0 -15 6 -27 13 -13 7 -23 10 -23 6 0 -3 -7 -1 -15 6 -8 7 -15 9
-15 5 0 -4 -6 -2 -13 4 -8 6 -17 8 -20 4 -4 -3 -7 -1 -7 5 0 7 -3 11 -7 11 -5
-1 -11 0 -15 1 -5 1 -11 3 -15 4 -5 1 -39 12 -78 24 -38 12 -85 24 -104 27
-19 3 -38 8 -43 11 -8 5 -10 6 -131 29 -94 18 -115 28 -123 60 -3 14 -11 25
-16 25 -6 0 -8 6 -5 13 3 7 -4 24 -14 38 -10 13 -19 27 -19 31 0 4 -12 33 -27
65 -14 32 -27 60 -28 63 0 3 -13 30 -27 60 -34 72 -113 240 -148 315 -15 33
-51 109 -79 168 -28 60 -51 113 -51 118 0 5 -5 9 -11 9 -5 0 -7 5 -4 10 3 6 1
10 -6 10 -7 0 -9 3 -6 7 4 3 0 15 -10 25 -9 10 -13 18 -9 18 3 0 -7 25 -24 56
-16 31 -30 63 -30 70 0 8 -4 14 -10 14 -5 0 -10 5 -10 11 0 5 -61 132 -136
282 -75 150 -144 287 -152 305 -9 17 -20 32 -25 32 -4 0 -5 5 -2 10 3 6 1 10
-4 10 -6 0 -10 3 -9 8 1 4 -3 16 -9 27 -7 11 -21 36 -33 55 -11 19 -28 51 -38
70 -9 19 -25 44 -34 54 -10 11 -18 25 -18 30 0 13 -78 106 -88 106 -4 0 -14
-6 -22 -13z m-1705 -2987 c86 -28 219 -64 277 -74 15 -2 31 -7 35 -9 7 -4 99
-18 130 -20 6 0 17 -21 23 -46 30 -119 67 -187 105 -197 19 -5 20 -12 20 -90
-1 -46 3 -84 8 -84 4 0 5 -5 2 -11 -8 -12 16 -99 27 -99 4 0 8 -5 8 -11 0 -12
30 -44 30 -32 0 4 4 1 10 -7 5 -9 5 -19 -1 -26 -5 -6 -7 -19 -3 -28 3 -9 1
-16 -4 -16 -6 0 -10 -12 -8 -27 1 -16 -2 -34 -7 -40 -5 -8 -6 -13 0 -13 4 0 8
-22 7 -50 0 -27 2 -50 6 -50 4 0 7 -12 6 -27 l-1 -27 -85 -1 c-47 0 -90 -3
-95 -6 -6 -3 -25 -5 -42 -5 -18 1 -33 -2 -33 -5 0 -3 -6 -6 -12 -7 -43 -3 -58
-7 -58 -15 0 -4 -5 -5 -10 -2 -6 4 -16 2 -23 -3 -7 -6 -21 -12 -32 -14 -11 -1
-22 -5 -25 -8 -3 -3 -32 -18 -65 -35 -33 -16 -63 -34 -68 -40 -4 -6 -18 2 -36
22 -40 43 -72 63 -144 88 l-62 21 -2 518 c-1 476 0 517 15 511 9 -3 57 -19
107 -35z"/>
</g>
</svg>
